<svg version="1.1" xmlns="http://www.w3.org/2000/svg" viewBox="-272.38399810791014 -3332.096166992187 8796.16025390625 4107.264184570312"><desc>Created with Snap</desc><defs></defs><g><rect x="-272.38399810791014" y="-3332.096166992187" width="8796.16025390625" height="4107.264184570312" fill="#77b6ea" style=""></rect><g><g transform="matrix(1.024,0,0,-1.024,0,0)"><path d="M327 -8Q194 -8 114 42Q34 93 34 197Q34 252 53 281Q72 310 109 310Q136 310 153 296Q170 282 170 260Q170 240 167 225Q167 221 165 211Q164 201 164 190Q164 145 209 123Q255 101 337 101Q422 101 470 131Q518 162 518 217Q518 251 496 275Q474 300 441 316Q408 333 348 357Q271 387 222 414Q174 441 139 487Q105 534 105 603Q105 675 143 731Q182 787 254 818Q327 849 425 849Q498 849 559 827Q620 806 656 762Q693 718 693 654Q693 591 674 559Q655 527 618 527Q592 527 574 543Q557 559 557 581Q557 600 560 616Q563 646 563 654Q563 696 522 718Q481 740 420 740Q334 740 288 708Q243 677 243 620Q243 582 266 555Q290 528 325 510Q360 492 423 467Q499 436 545 411Q591 386 623 343Q656 300 656 237Q656 119 566 55Q477 -8 327 -8ZM1296 223Q1309 223 1316 211Q1324 199 1324 178Q1324 138 1305 116Q1259 63 1210 29Q1162 -5 1100 -5Q1049 -5 1023 24Q997 54 997 110Q997 138 1011 210Q1024 273 1024 297Q1024 313 1013 313Q1000 313 976 279Q952 246 928 191Q904 136 889 75Q870 -5 795 -5Q765 -5 755 16Q746 38 746 94Q746 126 747 145L748 225Q748 379 779 546Q811 713 872 826Q934 940 1020 940Q1066 940 1094 900Q1123 861 1123 798Q1123 697 1064 588Q1005 480 872 335Q869 283 869 228Q902 313 942 366Q983 420 1022 443Q1062 466 1095 466Q1160 466 1160 401Q1160 362 1138 260Q1119 173 1119 145Q1119 105 1148 105Q1168 105 1195 129Q1223 154 1269 209Q1281 223 1296 223ZM999 841Q981 841 959 789Q937 738 916 650Q896 563 883 460Q945 533 985 619Q1026 705 1026 775Q1026 807 1019 824Q1012 841 999 841ZM1753 307Q1766 307 1773 294Q1780 281 1780 261Q1780 213 1751 204Q1691 183 1619 180Q1600 96 1544 45Q1488 -5 1417 -5Q1357 -5 1314 24Q1272 53 1250 101Q1228 149 1228 205Q1228 281 1257 340Q1286 400 1337 433Q1388 467 1450 467Q1526 467 1572 414Q1619 362 1627 285Q1674 288 1739 305Q1747 307 1753 307ZM1425 101Q1457 101 1480 127Q1504 153 1512 202Q1481 223 1464 257Q1448 291 1448 329Q1448 345 1451 361L1446 361Q1406 361 1379 322Q1353 284 1353 214Q1353 159 1374 130Q1396 101 1425 101ZM2228 223Q2241 223 2248 211Q2256 199 2256 178Q2256 138 2237 116Q2194 63 2144 29Q2095 -5 2032 -5Q1979 -5 1946 33Q1889 -4 1827 -5Q1814 -198 1768 -328Q1722 -457 1633 -457Q1579 -457 1553 -418Q1527 -379 1527 -310Q1527 -212 1572 -82Q1617 49 1711 206Q1711 352 1709 409Q1708 438 1732 455Q1756 472 1792 472Q1813 472 1822 463Q1832 455 1833 430Q1833 405 1834 393Q1866 433 1897 450Q1928 468 1963 468Q2019 468 2054 423Q2090 378 2090 305Q2090 252 2073 202Q2056 152 2026 111Q2047 105 2061 105Q2094 105 2124 129Q2154 153 2201 209Q2213 223 2228 223ZM1832 91Q1868 99 1898 130Q1929 162 1947 208Q1965 255 1965 306Q1965 336 1953 351Q1941 367 1921 367Q1885 367 1834 291Q1833 247 1833 162Q1833 116 1832 91ZM1641 -359Q1668 -359 1686 -242Q1704 -124 1709 51Q1666 -49 1641 -140Q1616 -231 1616 -293Q1616 -325 1623 -342Q1631 -359 1641 -359ZM2709 223Q2722 223 2729 211Q2737 199 2737 178Q2737 138 2718 116Q2675 63 2625 29Q2576 -5 2513 -5Q2460 -5 2427 33Q2370 -4 2308 -5Q2295 -198 2249 -328Q2203 -457 2114 -457Q2060 -457 2034 -418Q2008 -379 2008 -310Q2008 -212 2053 -82Q2098 49 2192 206Q2192 352 2190 409Q2189 438 2213 455Q2237 472 2273 472Q2294 472 2303 463Q2313 455 2314 430Q2314 405 2315 393Q2347 433 2378 450Q2409 468 2444 468Q2500 468 2535 423Q2571 378 2571 305Q2571 252 2554 202Q2537 152 2507 111Q2528 105 2542 105Q2575 105 2605 129Q2635 153 2682 209Q2694 223 2709 223ZM2313 91Q2349 99 2379 130Q2410 162 2428 208Q2446 255 2446 306Q2446 336 2434 351Q2422 367 2402 367Q2366 367 2315 291Q2314 247 2314 162Q2314 116 2313 91ZM2122 -359Q2149 -359 2167 -242Q2185 -124 2190 51Q2147 -49 2122 -140Q2097 -231 2097 -293Q2097 -325 2104 -342Q2112 -359 2122 -359ZM2787 532Q2745 532 2724 551Q2703 571 2703 606Q2703 641 2730 664Q2758 688 2799 688Q2836 688 2859 670Q2882 652 2882 619Q2882 579 2856 555Q2830 532 2787 532ZM2779 -5Q2714 -5 2684 41Q2655 87 2655 163Q2655 208 2666 278Q2678 349 2696 410Q2705 442 2720 454Q2735 466 2768 466Q2819 466 2819 432Q2819 407 2800 316Q2776 206 2776 167Q2776 137 2784 121Q2792 105 2811 105Q2829 105 2856 130Q2883 155 2928 209Q2940 223 2955 223Q2968 223 2975 211Q2983 199 2983 178Q2983 138 2964 116Q2865 -5 2779 -5ZM2973 -5Q2935 -5 2919 35Q2904 75 2904 163Q2904 293 2941 410Q2950 439 2970 452Q2991 466 3028 466Q3048 466 3056 461Q3064 456 3064 442Q3064 426 3049 370Q3039 330 3033 300Q3027 270 3023 226Q3056 312 3097 366Q3138 420 3177 443Q3217 466 3250 466Q3315 466 3315 401Q3315 362 3293 260Q3274 173 3274 145Q3274 105 3303 105Q3323 105 3350 129Q3378 154 3424 209Q3436 223 3451 223Q3464 223 3471 211Q3479 199 3479 178Q3479 138 3460 116Q3417 63 3367 29Q3318 -5 3255 -5Q3204 -5 3178 24Q3152 54 3152 110Q3152 138 3166 210Q3179 273 3179 297Q3179 313 3168 313Q3155 313 3131 279Q3108 246 3083 191Q3059 136 3044 75Q3033 28 3018 11Q3004 -5 2973 -5ZM3910 221Q3923 221 3930 208Q3938 196 3938 177Q3938 154 3931 141Q3924 128 3909 118Q3823 60 3783 32L3719 -11Q3681 -218 3619 -337Q3558 -455 3463 -455Q3412 -455 3380 -424Q3348 -392 3348 -341Q3348 -270 3404 -189Q3460 -107 3614 12L3620 51Q3603 24 3575 9Q3548 -5 3521 -5Q3459 -5 3422 40Q3385 85 3385 158Q3385 238 3422 309Q3459 381 3520 424Q3582 468 3651 468Q3673 468 3680 459Q3688 451 3693 429Q3712 433 3737 433Q3762 433 3772 425Q3783 418 3783 396Q3783 384 3782 377Q3778 346 3757 220Q3753 196 3748 167Q3744 139 3739 107Q3816 167 3887 213Q3900 221 3910 221ZM3557 96Q3580 96 3601 124Q3622 152 3631 204L3663 375Q3622 374 3587 343Q3552 313 3531 263Q3510 213 3510 157Q3510 126 3522 111Q3535 96 3557 96ZM3474 -358Q3499 -358 3530 -298Q3562 -238 3591 -107Q3514 -173 3480 -226Q3446 -279 3446 -319Q3446 -336 3452 -347Q3459 -358 3474 -358ZM4326 -5Q4289 -5 4273 11Q4257 28 4257 74Q4257 105 4263 149Q4269 193 4284 282Q4286 294 4300 379Q4314 465 4325 559Q4335 639 4335 679Q4335 724 4302 724Q4277 724 4239 697Q4202 671 4159 613Q4145 594 4128 594Q4114 594 4103 607Q4093 621 4093 638Q4093 655 4099 670Q4105 686 4121 708Q4170 775 4230 811Q4290 848 4356 848Q4411 848 4438 814Q4466 780 4466 715Q4466 657 4450 547Q4500 695 4577 771Q4654 848 4758 848Q4840 848 4881 801Q4923 755 4923 677Q4923 633 4910 570L4849 284Q4839 234 4839 198Q4839 156 4858 135Q4878 114 4913 114Q4946 114 4977 136Q5009 158 5052 209Q5064 223 5079 223Q5092 223 5099 211Q5107 199 5107 178Q5107 139 5088 116Q5036 53 4985 24Q4934 -5 4878 -5Q4793 -5 4745 45Q4697 96 4697 181Q4697 214 4702 253Q4708 292 4721 352L4761 535Q4763 544 4768 567Q4773 590 4776 610Q4779 631 4779 651Q4779 683 4761 702Q4743 721 4710 721Q4650 721 4590 657Q4530 593 4479 450Q4428 308 4399 86Q4392 35 4378 15Q4365 -5 4326 -5ZM5472 223Q5485 223 5492 211Q5500 199 5500 178Q5500 138 5481 116Q5444 71 5376 33Q5309 -5 5232 -5Q5127 -5 5069 52Q5011 109 5011 208Q5011 277 5040 336Q5069 396 5120 431Q5172 466 5237 466Q5295 466 5330 431Q5365 397 5365 338Q5365 269 5315 219Q5266 170 5148 141Q5173 95 5243 95Q5288 95 5345 126Q5403 158 5445 209Q5457 223 5472 223ZM5220 368Q5183 368 5157 325Q5132 282 5132 221L5132 219Q5191 233 5225 261Q5259 289 5259 326Q5259 345 5248 356Q5238 368 5220 368ZM5865 223Q5878 223 5885 211Q5893 199 5893 178Q5893 138 5874 116Q5831 63 5780 29Q5729 -5 5663 -5Q5459 -5 5459 282Q5459 326 5462 371L5423 371Q5393 371 5382 382Q5372 393 5372 417Q5372 473 5417 473L5474 473Q5491 583 5526 674Q5561 765 5610 819Q5660 873 5717 873Q5759 873 5783 836Q5807 799 5807 743Q5807 588 5677 473L5789 473Q5805 473 5812 466Q5819 459 5819 440Q5819 371 5706 371L5584 371Q5582 321 5582 293Q5582 189 5606 147Q5631 105 5684 105Q5727 105 5760 131Q5793 157 5838 209Q5850 223 5865 223ZM5690 777Q5675 777 5656 739Q5638 702 5621 635Q5605 569 5594 488Q5653 539 5682 602Q5712 666 5712 718Q5712 777 5690 777ZM6558 304Q6561 305 6568 305Q6583 305 6591 295Q6599 285 6599 268Q6599 237 6587 219Q6575 202 6551 194Q6505 179 6453 179Q6409 179 6370 191Q6341 144 6306 94Q6266 37 6237 16Q6209 -5 6173 -5Q6133 -5 6112 26Q6092 57 6087 128L6082 201Q6051 117 6026 73Q6002 29 5977 12Q5953 -5 5920 -5Q5879 -5 5855 27Q5832 59 5826 128Q5814 268 5814 373L5814 408Q5815 441 5832 454Q5849 467 5883 467Q5909 467 5921 455Q5934 444 5934 417Q5934 302 5948 118Q6016 261 6073 416Q6084 446 6099 456Q6115 467 6137 467Q6164 467 6174 456Q6185 445 6185 417Q6185 302 6199 118Q6259 207 6289 260Q6274 289 6274 329Q6274 363 6289 395Q6304 427 6330 447Q6356 467 6389 467Q6418 467 6436 446Q6454 426 6454 387Q6454 342 6430 284Q6468 286 6531 299L6558 304ZM7022 307Q7035 307 7042 294Q7049 281 7049 261Q7049 213 7020 204Q6960 183 6888 180Q6869 96 6813 45Q6757 -5 6686 -5Q6626 -5 6583 24Q6541 53 6519 101Q6497 149 6497 205Q6497 281 6526 340Q6555 400 6606 433Q6657 467 6719 467Q6795 467 6841 414Q6888 362 6896 285Q6943 288 7008 305Q7016 307 7022 307ZM6694 101Q6726 101 6749 127Q6773 153 6781 202Q6750 223 6733 257Q6717 291 6717 329Q6717 345 6720 361L6715 361Q6675 361 6648 322Q6622 284 6622 214Q6622 159 6643 130Q6665 101 6694 101ZM7034 -5Q6996 -5 6980 35Q6965 75 6965 163Q6965 293 7002 410Q7011 439 7031 452Q7052 466 7089 466Q7109 466 7117 461Q7125 456 7125 442Q7125 426 7110 370Q7100 330 7094 300Q7088 270 7084 226Q7117 312 7158 366Q7199 420 7238 443Q7278 466 7311 466Q7376 466 7376 401Q7376 388 7367 338Q7359 298 7359 288Q7359 253 7384 253Q7412 253 7456 297Q7469 310 7483 310Q7496 310 7503 298Q7511 287 7511 268Q7511 231 7491 210Q7463 181 7425 160Q7388 140 7346 140Q7293 140 7265 167Q7238 194 7238 240Q7238 255 7241 270Q7243 290 7243 297Q7243 313 7232 313Q7217 313 7192 279Q7168 246 7144 191Q7120 136 7105 75Q7094 28 7079 11Q7065 -5 7034 -5ZM7996 223Q8009 223 8016 211Q8024 199 8024 178Q8024 138 8005 116Q7960 61 7914 28Q7868 -5 7805 -5Q7728 -5 7681 39Q7634 83 7634 156Q7634 195 7674 212Q7718 231 7737 252Q7756 274 7756 305Q7756 323 7748 332Q7741 341 7730 341Q7703 341 7670 302Q7638 263 7610 201Q7582 140 7566 75Q7555 28 7540 11Q7526 -5 7495 -5Q7464 -5 7449 17Q7435 40 7430 87Q7425 134 7425 225Q7425 379 7456 546Q7488 713 7549 826Q7611 940 7697 940Q7743 940 7771 900Q7800 861 7800 798Q7800 697 7741 588Q7682 480 7549 335Q7546 283 7546 228Q7594 353 7656 409Q7718 466 7772 466Q7822 466 7852 432Q7883 398 7883 348Q7883 293 7855 247Q7827 201 7759 165Q7763 138 7783 121Q7804 105 7833 105Q7864 105 7893 129Q7922 153 7969 209Q7981 223 7996 223ZM7676 841Q7658 841 7636 789Q7614 738 7593 650Q7573 563 7560 460Q7622 533 7662 619Q7703 705 7703 775Q7703 807 7696 824Q7689 841 7676 841Z" fill="#292929" style=""></path></g></g><g transform="matrix(2,0,0,2,2343.9361,-1286.1441)"><g transform="matrix(1.024,0,0,-1.024,0,0)"><path d="M327 -8Q194 -8 114 42Q34 93 34 197Q34 252 53 281Q72 310 109 310Q136 310 153 296Q170 282 170 260Q170 240 167 225Q167 221 165 211Q164 201 164 190Q164 145 209 123Q255 101 337 101Q422 101 470 131Q518 162 518 217Q518 251 496 275Q474 300 441 316Q408 333 348 357Q271 387 222 414Q174 441 139 487Q105 534 105 603Q105 675 143 731Q182 787 254 818Q327 849 425 849Q498 849 559 827Q620 806 656 762Q693 718 693 654Q693 591 674 559Q655 527 618 527Q592 527 574 543Q557 559 557 581Q557 600 560 616Q563 646 563 654Q563 696 522 718Q481 740 420 740Q334 740 288 708Q243 677 243 620Q243 582 266 555Q290 528 325 510Q360 492 423 467Q499 436 545 411Q591 386 623 343Q656 300 656 237Q656 119 566 55Q477 -8 327 -8ZM925 -5Q888 -5 872 11Q856 28 856 74Q856 105 862 149Q868 193 883 282Q885 294 899 379Q913 465 924 559Q934 639 934 679Q934 724 901 724Q876 724 838 697Q801 671 758 613Q744 594 727 594Q713 594 702 607Q692 621 692 638Q692 655 698 670Q704 686 720 708Q769 775 829 811Q889 848 955 848Q1010 848 1037 814Q1065 780 1065 715Q1065 657 1049 547Q1099 695 1176 771Q1253 848 1357 848Q1439 848 1480 801Q1522 755 1522 677Q1522 633 1509 570L1448 284Q1438 234 1438 198Q1438 156 1457 135Q1477 114 1512 114Q1545 114 1576 136Q1608 158 1651 209Q1663 223 1678 223Q1691 223 1698 211Q1706 199 1706 178Q1706 139 1687 116Q1635 53 1584 24Q1533 -5 1477 -5Q1392 -5 1344 45Q1296 96 1296 181Q1296 214 1301 253Q1307 292 1320 352L1360 535Q1362 544 1367 567Q1372 590 1375 610Q1378 631 1378 651Q1378 683 1360 702Q1342 721 1309 721Q1249 721 1189 657Q1129 593 1078 450Q1027 308 998 86Q991 35 977 15Q964 -5 925 -5Z" fill="#292929" style=""></path></g></g></g></svg>